<svg class="icon" viewBox="0 0 1024 1024" xmlns="http://www.w3.org/2000/svg" width="200" height="200"><path d="M915.746 0H107.834C48.274 0 0 48.483 0 107.834v807.912c0 59.562 48.483 107.835 107.834 107.835h807.912c59.562 0 107.835-48.483 107.835-107.835V107.834C1023.58 48.491 975.098 0 915.746 0zm56.635 915.746c0 31.14-25.495 56.635-56.635 56.635H107.834c-31.139 0-56.634-25.495-56.634-56.635V107.834c0-31.139 25.495-56.634 56.634-56.634h807.912c31.14 0 56.635 25.495 56.635 56.634v807.912zm-267.288-429.45h-167.8V318.487a25.689 25.689 0 0 0-25.704-25.705 25.689 25.689 0 0 0-25.713 25.705v167.807H318.069c-14.215 0-25.705 11.498-25.705 25.495a25.689 25.689 0 0 0 25.705 25.705h167.807v167.807a25.689 25.689 0 0 0 25.705 25.705 25.689 25.689 0 0 0 25.705-25.705V537.495h167.823a25.689 25.689 0 0 0 25.704-25.705c0-14.207-11.497-25.495-25.704-25.495z"/></svg>