<svg class="icon" viewBox="0 0 1024 1024" xmlns="http://www.w3.org/2000/svg" width="200" height="200"><path d="M512 128a384 384 0 1 0 0 768 384 384 0 0 0 0-768zM42.667 512C42.667 252.8 252.8 42.667 512 42.667S981.333 252.8 981.333 512 771.2 981.333 512 981.333 42.667 771.2 42.667 512z"/><path d="M512 682.667c-98.645 0-167.637 32.426-210.347 61.994a42.667 42.667 0 1 1-48.64-70.101c54.699-37.973 140.374-77.227 258.987-77.227s204.288 39.296 258.987 77.227a42.667 42.667 0 1 1-48.64 70.101C679.68 715.093 610.688 682.667 512 682.667zm0-213.334a85.333 85.333 0 1 1 0-170.666 85.333 85.333 0 0 1 0 170.666zM341.333 384a170.667 170.667 0 1 0 341.334 0 170.667 170.667 0 0 0-341.334 0z"/></svg>