<svg class="icon" viewBox="0 0 1024 1024" xmlns="http://www.w3.org/2000/svg" width="200" height="200"><path d="M691.911 771.922a308.073 308.073 0 0 1-209.351 55.871c-3.467-.327-6.87-.916-10.402-1.374-6.673-.916-13.346-1.766-19.823-3.075a225.576 225.576 0 0 1-11.907-2.747 267.184 267.184 0 0 1-18.907-4.907c-2.944-.916-5.888-1.963-8.897-3.01a304.802 304.802 0 0 1-25.842-9.944 298.98 298.98 0 0 1-23.88-11.71l-1.046-.524a318.672 318.672 0 0 1-91.133-76.086c-1.243-1.504-2.42-3.205-3.664-4.775A318.083 318.083 0 0 1 198.3 511.869h72.75a5.234 5.234 0 0 0 4.645-2.813 5.103 5.103 0 0 0-.262-5.365L153.29 318.023a5.234 5.234 0 0 0-8.832 0L22.249 503.691c-1.047 1.505-1.243 3.599-.261 5.365s2.747 2.813 4.645 2.813h72.749c0 87.928 27.085 169.378 73.011 236.698.589.981.982 1.962 1.57 2.878 4.776 6.87 10.075 13.281 15.178 19.823 1.898 2.42 3.73 4.972 5.692 7.393 7.524 9.29 15.505 17.86 23.748 26.43l2.29 2.356a406.73 406.73 0 0 0 125.48 86.684l7.589 3.402c8.701 3.664 17.73 6.87 26.692 9.944 4.253 1.44 8.44 2.944 12.758 4.253 7.916 2.355 15.963 4.318 24.075 6.28 5.43 1.309 10.73 2.683 16.29 3.73 2.224.523 4.383 1.177 6.673 1.504 7.654 1.374 15.309 2.159 23.029 3.075l8.243 1.178a405.945 405.945 0 0 0 277.128-73.535 50.506 50.506 0 0 0 12.169-69.74 49.132 49.132 0 0 0-69.086-12.3M924.75 511.87a418.964 418.964 0 0 0-72.684-236.174c-.72-1.178-1.178-2.355-1.832-3.337a438.46 438.46 0 0 0-18.057-23.552l-2.159-2.813a408.562 408.562 0 0 0-154.003-117.171 164.864 164.864 0 0 1-4.907-2.29 514.153 514.153 0 0 0-28.982-10.794c-3.73-1.178-7.197-2.486-10.86-3.533a386.253 386.253 0 0 0-25.907-6.804c-4.776-1.112-9.618-2.355-14.524-3.337-2.42-.458-4.645-1.177-7.066-1.635-6.542-1.178-13.084-1.636-19.626-2.486-4.45-.589-8.963-1.309-13.477-1.767a422.758 422.758 0 0 0-32.712-1.635c-1.962 0-3.925-.327-5.953-.327a406.141 406.141 0 0 0-236.632 75.562 50.506 50.506 0 0 0-12.234 69.806 49.198 49.198 0 0 0 69.086 12.234 309.185 309.185 0 0 1 209.678-55.87l8.309 1.177c7.523.85 14.916 1.963 22.178 3.402 3.205.589 6.411 1.44 9.551 2.159 7.131 1.635 14.328 3.402 21.263 5.495l6.542 2.29c7.981 2.617 15.767 5.43 23.486 8.701l2.421 1.112c46.123 20.085 86.619 51.03 118.218 89.76l.589.785A317.952 317.952 0 0 1 825.7 511.935h-72.685a5.234 5.234 0 0 0-4.383 8.177l122.274 185.603a5.234 5.234 0 0 0 8.767 0l122.143-185.603a5.234 5.234 0 1 0-4.383-8.177h-72.684v-.066zm0 0"/></svg>