<svg class="icon" viewBox="0 0 1024 1024" xmlns="http://www.w3.org/2000/svg" width="200" height="200"><path d="M512 32.417c264.867 0 479.583 214.716 479.583 479.583S776.867 991.583 512 991.583 32.417 776.867 32.417 512 247.133 32.417 512 32.417zm0 91.349c-214.42 0-388.234 173.815-388.234 388.234S297.58 900.234 512 900.234 900.234 726.42 900.234 512 726.42 123.766 512 123.766zm-5.595 561.957c17.562 0 32.726 5.71 44.692 17.128 11.168 11.419 17.54 26.103 17.54 44.053 0 17.928-6.395 33.434-18.339 44.853-11.967 11.419-26.331 17.128-43.893 17.128-17.54 0-31.904-6.532-43.848-17.95-11.99-11.419-17.584-26.103-17.584-44.03 0-17.95 5.595-32.635 17.584-44.054 11.944-11.418 26.309-17.128 43.848-17.128zm14.387-470.608c51.841 0 94.136 13.862 126.04 43.231 31.88 28.547 47.866 67.69 47.866 117.452 0 40.765-10.368 74.222-29.528 100.325-7.171 8.153-30.305 30.168-68.603 64.424a125.97 125.97 0 0 0-31.904 40.787c-7.993 16.306-10.414 17.334-15.598 41.016-3.106 24.596-19.709 35.398-49.808 32.406-30.1-3.015-42.478-23.522-37.065-61.592 2.352-11.168 7.262-24.07 14.707-38.755 10.368-22.015 41.473-56.271 93.336-103.59l9.592-11.419c14.342-17.927 21.535-37.499 21.535-57.892 0-26.926-7.993-48.119-22.357-63.625-15.141-15.507-36.677-22.837-63.808-22.837-35.1 0-59.834 10.596-74.997 33.433-13.566 18.773-19.937 45.675-19.937 79.931-5.162 28.273-20.6 42.409-46.292 42.409s-40.582-14.136-44.67-42.409c0-60.359 16.763-107.655 51.841-141.911 34.348-34.256 80.616-51.384 139.65-51.384z"/></svg>