<svg class="icon" viewBox="0 0 1024 1024" xmlns="http://www.w3.org/2000/svg" width="200" height="200"><path d="M504.7 69.085c-246.909 0-447.783 200.874-447.783 447.782S257.79 964.65 504.699 964.65s447.783-200.875 447.783-447.783S751.607 69.085 504.699 69.085zm0 800.795c-194.655 0-353.014-158.361-353.014-353.013S310.046 163.854 504.7 163.854s353.013 158.36 353.013 353.013S699.353 869.88 504.7 869.88z"/><path d="m632.183 493.334-78.812 78.812V302.71c0-26.881-21.79-48.672-48.672-48.672s-48.672 21.79-48.672 48.672v267.003l-76.378-76.379c-19.01-19.004-49.828-19.004-68.835 0-19.006 19.01-19.006 49.828 0 68.835l158.318 158.318a48.53 48.53 0 0 0 34.419 14.253c.79 0 1.577-.075 2.367-.112.789.04 1.577.112 2.368.112a48.54 48.54 0 0 0 34.419-14.253l158.318-158.318c19.006-19.01 19.006-49.828 0-68.835-19.014-19.004-49.833-19.004-68.84 0z"/></svg>