<svg class="icon" width="200" height="200" viewBox="0 0 1024 1024" xmlns="http://www.w3.org/2000/svg"><path d="M413.947 705.6a62.694 62.694 0 0 0 30.021 7.744 66.407 66.407 0 0 0 36.174-10.608l193.176-127.299a75.212 75.212 0 0 0 33.84-63.65 73.303 73.303 0 0 0-32.78-62.057L479.4 322.43a63.65 63.65 0 0 0-65.559-3.288 74.257 74.257 0 0 0-36.704 66.301v254.597a74.257 74.257 0 0 0 36.81 65.559zm36.917-72.348V390.854l182.46 119.237v.848a11.563 11.563 0 0 1 0 2.016z"/><path d="M193.827 830.246a448.197 448.197 0 1 0-96.429-142.998 451.06 451.06 0 0 0 96.429 142.998zM136.33 512a376.273 376.273 0 1 1 375.743 376.273A376.697 376.697 0 0 1 136.33 512z"/></svg>