<svg class="icon" width="200" height="200" viewBox="0 0 1024 1024" xmlns="http://www.w3.org/2000/svg"><path d="M830.215 193.785a448.302 448.302 0 1 0 96.451 143.032 449.47 449.47 0 0 0-96.451-143.032zm58.253 318.321A376.468 376.468 0 1 1 512 135.532 376.786 376.786 0 0 1 888.468 512z"/><path d="M429.343 309.442a36.076 36.076 0 0 0-36.713 35.333v338.482a36.82 36.82 0 0 0 73.532 0V344.775a36.183 36.183 0 0 0-36.82-35.333zm165.314 0a36.076 36.076 0 0 0-36.713 35.333v338.482a36.82 36.82 0 0 0 73.533 0V344.775a36.183 36.183 0 0 0-36.82-35.333z"/></svg>