<svg class="icon" viewBox="0 0 1024 1024" xmlns="http://www.w3.org/2000/svg" width="200" height="200"><path d="M947.456 888.32 780.8 724.8a393.792 393.792 0 0 0-20.608-543.872 413.952 413.952 0 0 0-576.576 0 393.792 393.792 0 0 0 0 565.376A414.848 414.848 0 0 0 718.08 780.8l168.448 165.312A44.8 44.8 0 0 0 915.2 960a44.8 44.8 0 0 0 30.464-12.096 42.112 42.112 0 0 0 1.792-59.584zm-797.44-424.704a318.976 318.976 0 0 1 322.112-313.6 318.976 318.976 0 0 1 321.664 313.6 318.976 318.976 0 0 1-321.664 313.6 318.976 318.976 0 0 1-322.112-313.6z"/></svg>