<svg class="icon" width="200" height="200" viewBox="0 0 1024 1024" xmlns="http://www.w3.org/2000/svg"><path d="M511.84 62.003A449.52 449.52 0 0 0 62 511.843 450.054 450.054 0 0 0 830.228 830.23a450.374 450.374 0 0 0 0-636.456A446.853 446.853 0 0 0 511.84 62.003zm267.706 717.546a378.566 378.566 0 1 1 0-535.412 378.886 378.886 0 0 1 0 535.412z"/><path d="M708.699 350.728a35.424 35.424 0 0 0-10.67-25.287 35.85 35.85 0 0 0-50.468 0L511.84 461.374 376.012 325.441a35.744 35.744 0 0 0-50.575 50.575l135.934 135.827-135.934 135.933a35.85 35.85 0 0 0 0 50.469 35.85 35.85 0 0 0 50.575 0L511.84 562.418l135.934 135.827a35.637 35.637 0 0 0 50.468 0 35.637 35.637 0 0 0 0-50.469L562.415 511.843l135.827-135.827a35.104 35.104 0 0 0 10.457-25.288z"/></svg>