<svg class="icon" viewBox="0 0 1024 1024" xmlns="http://www.w3.org/2000/svg" width="200" height="200"><path d="M280.137 512c0-47.58-38.144-85.723-86.564-85.723A85.413 85.413 0 0 0 107.849 512a85.413 85.413 0 0 0 85.724 85.723c48.42 0 86.564-38.144 86.564-85.723zm317.148 0c0-47.58-37.706-85.723-85.285-85.723S426.715 464.42 426.715 512s37.706 85.723 85.285 85.723S597.285 559.58 597.285 512zm318.866 0a85.687 85.687 0 0 0-85.724-85.723c-48.42 0-86.564 38.144-86.564 85.723s38.144 85.723 86.564 85.723A85.687 85.687 0 0 0 916.151 512z"/></svg>