<svg width="26" height="26" xmlns="http://www.w3.org/2000/svg"><path d="m22.238 3.87-.065-.065c-5.066-5.08-13.289-5.067-18.368 0-5.08 5.067-5.067 13.306 0 18.376A12.943 12.943 0 0 0 13.002 26h9.691c.546 0 1.001-.442 1.001-1.001v-4.612a13.503 13.503 0 0 0 1.677-3.354A13.044 13.044 0 0 0 22.238 3.87ZM11.884 18.23l.793-4.209h-3.65l-.806 4.209H6.077l1.91-10.02h2.145l-.744 3.913h3.663l.754-3.91h2.145L14.039 18.23h-2.155Zm6.21 0H15.95l1.39-7.277h2.146l-1.391 7.277Zm1.48-8.499a1.17 1.17 0 0 1-.898.325.99.99 0 0 1-1.04-.936v-.104a1.218 1.218 0 0 1 1.235-1.222c.56-.04 1.04.39 1.08.949v.104c0 .325-.144.65-.378.884Z" fill="#1D4EFF" fill-rule="nonzero" opacity=".325"/></svg>