<svg width="14" height="17" xmlns="http://www.w3.org/2000/svg"><path d="M13.169 11.854c-.02.062-.338 1.17-1.118 2.309-.676.982-1.374 1.973-2.477 1.99-1.085.019-1.432-.647-2.67-.647-1.237 0-1.626.63-2.65.666-1.06.043-1.876-1.073-2.554-2.051C.315 12.118-.752 8.445.68 5.984c.704-1.232 1.97-2.015 3.347-2.036 1.038-.02 2.026.703 2.657.703.648 0 1.843-.874 3.103-.744.528.023 2.005.221 2.956 1.6-.075.05-1.767 1.05-1.748 3.081.026 2.453 2.152 3.258 2.175 3.266M8.96 2.594C9.53 1.9 9.903.946 9.805 0c-.812.032-1.8.54-2.388 1.228-.52.602-.978 1.57-.85 2.506.902.055 1.829-.473 2.394-1.14"/></svg>