<svg width="80" height="80" xmlns="http://www.w3.org/2000/svg"><g fill="none" fill-rule="evenodd"><circle fill="#EEF0F6" cx="40" cy="40" r="40"/><path d="M61.793 30.058c-1.259-3.29-3.849-6.428-7.465-8.228-2.797-1.394-6.709-1.923-9.442-1.817-6.804.266-25.255 6.44-27.44 20.797-1.596 10.478 8.268 15.422 13.721 17.331l-.006.01c.076.022.14.045.184.06.973.35 1.808.58 2.663.789.385.096.6.14.6.14.287.068.417.11.725.164.43.077.398-.227.623-.182 2.514.509 4.078.759 5.168.865.092.01.152-.016.178-.026.27-.083.365-.368.718-.333.308.032 2.847.387 2.904.371.29-.016.423-.176.448-.477.02-.25-.187-.388-.425-.423a2.849 2.849 0 0 1-.394-.08c-.096-.029-.13-.109-.13-.183 0-.096.07-.182.215-.182 0 0 1.834.23 1.907.234.159.006.448-.036.505-.324.051-.26-.136-.43-.368-.47-.394-.075-1.847-.321-2.762-.498l-.038-.006c-.12-.035-.432-.112-.369-.442.054-.282.356-.27.439-.26.006 0 .013.004.022.004.067.01.134.016.194.025.451.058 4.824.74 6.693.785.117.003.613.039.623-.426.006-.33-.305-.4-.305-.4s-.925-.11-1.405-.173a17.538 17.538 0 0 1-1.332-.222c-.311-.073-.314-.262-.295-.378.019-.112.117-.243.33-.253.26-.01.68.064.795.068.21.006.442.035.581-.119a.468.468 0 0 0 .026-.609c-.083-.109-.258-.15-.258-.15l-2.342-.459c.096-.394-.067-.71-.473-.839-.814-.195-3.115-.724-3.76-.89-2.57-.667-5.758-1.616-7.303-2.24-6.349-2.576-8.545-6.088-8.446-8.485.066-1.669 1.344-4.69 5.748-7.641a32.988 32.988 0 0 1 7.281-3.698c7.274-2.624 11.097-.317 12.553 1.186.276.285.441.628.565.92.162.38.2.836.121 1.08-.25.794-1.455 1.236-3.8.832-2.924-.503-6.02 1.452-6.731 4.672-.81 3.662 2.284 9.538 11.402 6.744 4.401-1.349 6.318-3.81 7.319-6.116 1.268-2.929 1.312-6.72.038-10.048" fill="#FFF" fill-rule="nonzero"/></g></svg>