<?xml version="1.0" standalone="no"?><!DOCTYPE svg PUBLIC "-//W3C//DTD SVG 1.1//EN" "http://www.w3.org/Graphics/SVG/1.1/DTD/svg11.dtd"><svg class="icon" width="200px" height="200.00px" viewBox="0 0 1024 1024" version="1.1" xmlns="http://www.w3.org/2000/svg"><path d="M128.064 192l768 0.896-0.128 64L128 256l0.064-64z m514.048 294.848a32 32 0 0 0 0 51.2l202.688 152a32 32 0 0 0 51.2-25.6v-304a32 32 0 0 0-51.2-25.6l-202.688 152zM832 424.448v176l-117.312-88L832 424.448zM128 480h416v64H128v-64z m0.064 288l768 0.896-0.128 64L128 832l0.064-64z" fill="#000000" fill-opacity=".9" /></svg>