<svg class="icon" width="200" height="200" viewBox="0 0 1024 1024" xmlns="http://www.w3.org/2000/svg"><path d="M640 170.667a42.667 42.667 0 0 1 42.667 42.666v128h128A42.667 42.667 0 0 1 853.333 384v426.667a42.667 42.667 0 0 1-42.666 42.666H384a42.667 42.667 0 0 1-42.667-42.666v-128h-128A42.667 42.667 0 0 1 170.667 640V213.333a42.667 42.667 0 0 1 42.666-42.666H640zM810.667 384h-128v256A42.667 42.667 0 0 1 640 682.667H384v128h426.667V384zM640 213.333H213.333V640h128V384A42.667 42.667 0 0 1 384 341.333h256v-128zM640 384H384v256h256V384z"/></svg>