<svg class="icon" viewBox="0 0 1024 1024" xmlns="http://www.w3.org/2000/svg" width="200" height="200"><path d="M737.674 863.904v-63.77h-65.17v63.816Zm97.27.046c15.954 0 29.006-13.054 29.006-29.007v-34.809h-62.462v63.77M415.312 223.866v191.447H223.865V223.866h191.447m34.809-63.816H189.056c-15.954 0-29.007 13.053-29.007 29.007V450.12c0 15.954 13.053 29.006 29.007 29.006H450.12c15.953 0 29.006-13.053 29.006-29.006V189.057c.001-15.953-13.052-29.007-29.005-29.007zM287.68 319.59a31.181 31.181 0 1 0 63.815 0 31.181 31.181 0 1 0-63.815 0Zm512.453-95.724v191.447H608.688V223.866h191.446m34.81-63.816H573.878c-15.954 0-29.006 13.053-29.006 29.007V450.12c0 15.954 13.053 29.006 29.006 29.006h261.064c15.955 0 29.007-13.053 29.007-29.006V189.057c0-15.953-13.052-29.007-29.007-29.007zm-162.44 159.54a31.181 31.181 0 1 0 63.815 0 31.181 31.181 0 1 0-63.815 0ZM415.312 608.687v191.447H223.865V608.687h191.447m34.809-63.815H189.056c-15.954 0-29.007 13.053-29.007 29.006v261.064c0 15.955 13.053 29.007 29.007 29.007H450.12c15.954 0 29.006-13.054 29.006-29.007V573.878c.001-15.953-13.052-29.006-29.005-29.006zM287.68 704.41a31.181 31.181 0 1 0 63.815 0 31.181 31.181 0 1 0-63.815 0Zm547.262-159.538h-35.58v127.63h-63.815v-127.63H573.88c-15.954 0-29.006 13.053-29.006 29.006v261.064c0 15.955 13.053 29.007 29.006 29.007h34.81V672.503h63.815v63.815H863.95v-162.44c0-15.953-13.053-29.006-29.008-29.006z" fill="#272636"/></svg>