<svg class="icon" viewBox="0 0 1305 1024" xmlns="http://www.w3.org/2000/svg" width="254.883" height="200"><path d="M.838 75.218c0 19.642 8.099 39.192 21.97 53.062 13.963 13.964 33.512 22.063 53.247 22.063a76.055 76.055 0 0 0 53.062-21.97c13.964-13.963 22.062-33.513 22.063-53.155a76.055 76.055 0 0 0-21.877-53.248A76.055 76.055 0 0 0 76.055 0a76.055 76.055 0 0 0-53.248 21.97A76.707 76.707 0 0 0 .837 75.218m0 400.942c0 19.643 8.007 39.378 21.97 53.248 13.964 13.964 33.42 21.97 53.248 21.97a76.241 76.241 0 0 0 53.155-21.97 75.962 75.962 0 0 0 21.97-53.248 76.241 76.241 0 0 0-21.97-53.154 75.962 75.962 0 0 0-53.155-21.97 76.241 76.241 0 0 0-53.248 21.97A75.962 75.962 0 0 0 .837 476.16m0 401.036c0 19.642 8.007 39.284 21.97 53.248 13.964 13.963 33.42 21.97 53.248 21.97a76.241 76.241 0 0 0 53.155-21.97 75.962 75.962 0 0 0 21.97-53.248 76.241 76.241 0 0 0-21.97-53.248 75.962 75.962 0 0 0-53.155-21.97 76.241 76.241 0 0 0-53.248 21.97 76.52 76.52 0 0 0-21.97 53.248M1304.11 75.218c0 41.519-32.395 75.125-72.331 75.125H373.946c-40.03 0-72.332-33.513-72.332-75.125C301.521 33.514 333.917.001 373.946.001h857.832c40.029 0 72.331 33.606 72.331 75.217m-72.331 476.16H373.946c-40.03 0-72.332-33.606-72.332-75.218 0-41.518 32.303-75.124 72.332-75.124h857.832c40.029-.186 72.331 33.513 72.331 75.124 0 41.426-32.395 75.218-72.331 75.218zm72.331 325.725c0 41.611-32.395 75.31-72.331 75.31H373.946c-40.03 0-72.332-33.699-72.332-75.31 0-41.426 32.303-75.125 72.332-75.125h857.832c40.029-.093 72.331 33.7 72.331 75.125"/></svg>