<svg width="910" height="580" xmlns="http://www.w3.org/2000/svg" xmlns:xlink="http://www.w3.org/1999/xlink"><defs><linearGradient x1="50%" y1="1.481%" x2="50%" y2="98.812%" id="a"><stop stop-color="#FCFDFF" stop-opacity=".38" offset="0%"/><stop stop-color="#BFD6FF" offset="100%"/></linearGradient><linearGradient x1="50%" y1="49.664%" x2="50%" y2=".666%" id="b"><stop stop-color="#DCEDFF" stop-opacity="0" offset="0%"/><stop stop-color="#3C89FF" stop-opacity=".387" offset="100%"/></linearGradient><linearGradient x1="46.16%" y1="-9.213%" x2="60.475%" y2="50%" id="c"><stop stop-color="#CFDDF3" offset="0%"/><stop stop-color="#A1B8E3" offset="100%"/></linearGradient><linearGradient x1="50%" y1="0%" x2="50%" y2="100%" id="d"><stop stop-color="#CFDDF3" offset="0%"/><stop stop-color="#A1B8E3" offset="100%"/></linearGradient><linearGradient x1="50%" y1="0%" x2="50%" y2="100%" id="e"><stop stop-color="#CFDDF3" offset="0%"/><stop stop-color="#A1B8E3" offset="100%"/></linearGradient><linearGradient x1="50%" y1="0%" x2="50%" y2="100%" id="f"><stop stop-color="#CFDDF3" offset="0%"/><stop stop-color="#A1B8E3" offset="100%"/></linearGradient><linearGradient x1="50%" y1="0%" x2="50%" y2="100%" id="g"><stop stop-color="#CFDDF3" offset="0%"/><stop stop-color="#A1B8E3" offset="100%"/></linearGradient><linearGradient x1="68.076%" y1="-30.265%" x2="50%" y2="100%" id="h"><stop stop-color="#CFDDF3" offset="0%"/><stop stop-color="#A1B8E3" offset="100%"/></linearGradient><linearGradient x1="67.958%" y1="-30.265%" x2="50%" y2="100%" id="i"><stop stop-color="#CFDDF3" offset="0%"/><stop stop-color="#A1B8E3" offset="100%"/></linearGradient><linearGradient x1="67.958%" y1="-30.265%" x2="50%" y2="100%" id="j"><stop stop-color="#CFDDF3" offset="0%"/><stop stop-color="#A1B8E3" offset="100%"/></linearGradient><linearGradient x1="68.069%" y1="-30.265%" x2="50%" y2="100%" id="k"><stop stop-color="#CFDDF3" offset="0%"/><stop stop-color="#A1B8E3" offset="100%"/></linearGradient><linearGradient x1="68.048%" y1="-30.265%" x2="50%" y2="100%" id="l"><stop stop-color="#CFDDF3" offset="0%"/><stop stop-color="#A1B8E3" offset="100%"/></linearGradient><linearGradient x1="68.031%" y1="-30.265%" x2="50%" y2="100%" id="m"><stop stop-color="#CFDDF3" offset="0%"/><stop stop-color="#A1B8E3" offset="100%"/></linearGradient><linearGradient x1="203.728%" y1="-19.495%" x2="-41.694%" y2="114.521%" id="n"><stop stop-color="#D2E0F9" stop-opacity="0" offset="0%"/><stop stop-color="#B1C6E7" stop-opacity=".465" offset="100%"/></linearGradient><linearGradient x1="203.728%" y1="-19.495%" x2="-41.694%" y2="114.521%" id="o"><stop stop-color="#D2E0F9" stop-opacity="0" offset="0%"/><stop stop-color="#B1C6E7" stop-opacity=".465" offset="100%"/></linearGradient><linearGradient x1="38.97%" y1="42.246%" x2="76.728%" y2="32.379%" id="p"><stop stop-color="#7FA0D4" offset="0%"/><stop stop-color="#D6E3FA" offset="100%"/></linearGradient><linearGradient x1="50%" y1="166.803%" x2="50%" y2="20.389%" id="r"><stop stop-color="#FFF5F2" offset="0%"/><stop stop-color="#FFCDA0" offset="100%"/></linearGradient><linearGradient x1="50%" y1="166.803%" x2="50%" y2="20.389%" id="t"><stop stop-color="#FFF5F2" offset="0%"/><stop stop-color="#FFCDA0" offset="100%"/></linearGradient><linearGradient x1="22.083%" y1="-6.56%" x2="29.406%" y2="43.646%" id="u"><stop stop-color="#2D6DC0" offset="0%"/><stop stop-color="#143B8C" offset="100%"/></linearGradient><linearGradient x1="54.725%" y1="38.183%" x2="60.143%" y2="88.708%" id="w"><stop stop-color="#174293" stop-opacity="0" offset="0%"/><stop stop-color="#051E4B" offset="100%"/></linearGradient><linearGradient x1="38.376%" y1="56.283%" x2="31.168%" y2="71.5%" id="y"><stop stop-color="#2E7DE7" stop-opacity="0" offset="0%"/><stop stop-color="#00357E" stop-opacity=".5" offset="100%"/></linearGradient><linearGradient x1="50%" y1="100%" x2="50%" y2="0%" id="A"><stop stop-color="#70B8F9" stop-opacity=".276" offset="0%"/><stop stop-color="#3D82F0" offset="100%"/></linearGradient><linearGradient x1="53.613%" y1="54.367%" x2="84.438%" y2="81.956%" id="C"><stop stop-color="#3D82F0" stop-opacity="0" offset="0%"/><stop stop-color="#3D82F0" offset="100%"/></linearGradient><linearGradient x1="52.875%" y1="54.367%" x2="77.403%" y2="81.956%" id="D"><stop stop-color="#3D82F0" stop-opacity="0" offset="0%"/><stop stop-color="#3D82F0" offset="100%"/></linearGradient><linearGradient x1="50%" y1="166.803%" x2="50%" y2="20.389%" id="E"><stop stop-color="#FFF5F2" offset="0%"/><stop stop-color="#FFCDA0" offset="100%"/></linearGradient><linearGradient x1="50%" y1="18.53%" x2="81.44%" y2="54.034%" id="F"><stop stop-color="#134492" offset="0%"/><stop stop-color="#0C1832" offset="100%"/></linearGradient><linearGradient x1="50%" y1="166.803%" x2="50%" y2="20.389%" id="G"><stop stop-color="#FFF5F2" offset="0%"/><stop stop-color="#FFCDA0" offset="100%"/></linearGradient><linearGradient x1="50%" y1="166.803%" x2="50%" y2="20.389%" id="H"><stop stop-color="#FFF5F2" offset="0%"/><stop stop-color="#FFCDA0" offset="100%"/></linearGradient><linearGradient x1="89.924%" y1="27.226%" x2="44.829%" y2="38.729%" id="J"><stop stop-color="#EDF3FD" offset="0%"/><stop stop-color="#D6E3FA" offset="100%"/></linearGradient><linearGradient x1="46.658%" y1="107.338%" x2="53.342%" y2="6.301%" id="L"><stop stop-color="#EAF0F7" stop-opacity=".116" offset="0%"/><stop stop-color="#D1DDED" offset="100%"/></linearGradient><linearGradient x1="72.706%" y1="33.934%" x2="45.194%" y2="50%" id="N"><stop stop-color="#EAF0F7" stop-opacity=".116" offset="0%"/><stop stop-color="#D1DDED" offset="100%"/></linearGradient><linearGradient x1="16.204%" y1="50%" x2="42.225%" y2="50%" id="O"><stop stop-color="#B1C6E7" offset="0%"/><stop stop-color="#E5EFFD" offset="100%"/></linearGradient><linearGradient x1="55.631%" y1="50%" x2="28.459%" y2="41.705%" id="P"><stop stop-color="#7FA0D4" offset="0%"/><stop stop-color="#D6E3FA" offset="100%"/></linearGradient><linearGradient x1="50%" y1="100%" x2="90.551%" y2="68.856%" id="Q"><stop stop-color="#002D65" offset="0%"/><stop stop-color="#3A74C6" offset="87.783%"/><stop stop-color="#3062AA" offset="100%"/></linearGradient><linearGradient x1="8.953%" y1="49.749%" x2="19.799%" y2="53.244%" id="S"><stop stop-color="#EAEFFF" offset="0%"/><stop stop-color="#F7F9FE" offset="100%"/></linearGradient><linearGradient x1="50%" y1="43.645%" x2="43.212%" y2="51.307%" id="T"><stop stop-color="#0041B2" offset="0%"/><stop stop-color="#2D64D7" stop-opacity="0" offset="100%"/></linearGradient><linearGradient x1="50%" y1="166.803%" x2="50%" y2="20.389%" id="V"><stop stop-color="#FFF5F2" offset="0%"/><stop stop-color="#FFCDA0" offset="100%"/></linearGradient><linearGradient x1="50%" y1="166.803%" x2="50%" y2="20.389%" id="X"><stop stop-color="#FFF5F2" offset="0%"/><stop stop-color="#FFCDA0" offset="100%"/></linearGradient><linearGradient x1="0%" y1="66.877%" x2="64.458%" y2="46.323%" id="Z"><stop stop-color="#FF7F31" offset="0%"/><stop stop-color="#FFD25F" offset="100%"/></linearGradient><linearGradient x1="54.51%" y1="27.929%" x2="40.128%" y2="50%" id="aa"><stop stop-color="#FF7F31" offset="0%"/><stop stop-color="#FFC83A" stop-opacity="0" offset="100%"/></linearGradient><linearGradient x1="50%" y1="68.519%" x2="100%" y2="37.594%" id="ac"><stop stop-color="#FF7F31" offset="0%"/><stop stop-color="#FFC83A" stop-opacity="0" offset="100%"/></linearGradient><linearGradient x1="50%" y1="166.803%" x2="50%" y2="20.389%" id="ad"><stop stop-color="#FFF5F2" offset="0%"/><stop stop-color="#FFCDA0" offset="100%"/></linearGradient><linearGradient x1="76.208%" y1="61.803%" x2="55.207%" y2="85.633%" id="ae"><stop stop-color="#3D82F0" offset="0%"/><stop stop-color="#143B8C" offset="100%"/></linearGradient><linearGradient x1="50%" y1="0%" x2="57.518%" y2="56.409%" id="af"><stop stop-color="#164898" offset="0%"/><stop stop-color="#223762" offset="100%"/></linearGradient><linearGradient x1="50%" y1="0%" x2="50%" y2="100%" id="ag"><stop stop-color="#B2C7E8" offset="0%"/><stop stop-color="#D6E3FA" offset="100%"/></linearGradient><linearGradient x1="50%" y1="0%" x2="50%" y2="100%" id="ah"><stop stop-color="#C6D6EE" offset="0%"/><stop stop-color="#E5EFFD" offset="100%"/></linearGradient><linearGradient x1="39.974%" y1="21.658%" x2="65.338%" y2="21.658%" id="ai"><stop stop-color="#002B64" offset="0%"/><stop stop-color="#0F3177" offset="100%"/></linearGradient><linearGradient x1="80.133%" y1="27.151%" x2="20.843%" y2="72.981%" id="al"><stop stop-color="#DBE9FF" offset="0%"/><stop stop-color="#A7BDE4" offset="44.095%"/><stop stop-color="#5876AF" offset="100%"/></linearGradient><linearGradient x1="65.29%" y1="73.722%" x2="61.367%" y2="84.649%" id="an"><stop stop-color="#869FCE" stop-opacity="0" offset="0%"/><stop stop-color="#4975C1" offset="100%"/></linearGradient><linearGradient x1="100%" y1="50%" x2="0%" y2="50%" id="ap"><stop stop-color="#D9E5F6" stop-opacity=".713" offset="0%"/><stop stop-color="#B2C6EA" offset="100%"/></linearGradient><linearGradient x1="45.494%" y1="78.272%" x2="77.735%" y2="48.237%" id="ar"><stop stop-color="#ACC5E9" offset="0%"/><stop stop-color="#D3E3FB" offset="62.747%"/><stop stop-color="#EAF2FF" offset="100%"/></linearGradient><linearGradient x1="77.599%" y1="46.991%" x2="40.27%" y2="55.795%" id="at"><stop stop-color="#86A8D9" offset="0%"/><stop stop-color="#BCD0F2" offset="100%"/></linearGradient><linearGradient x1="46.252%" y1="5.042%" x2="56.798%" y2="100%" id="av"><stop stop-color="#B1FFBE" offset="0%"/><stop stop-color="#5CDB8E" offset="44.421%"/><stop stop-color="#149654" offset="100%"/></linearGradient><linearGradient x1="74.365%" y1="-9.302%" x2="84.383%" y2="88.816%" id="az"><stop stop-color="#B1FFBE" offset="0%"/><stop stop-color="#5CDB8E" offset="44.421%"/><stop stop-color="#149654" offset="100%"/></linearGradient><linearGradient x1="41.58%" y1="5.042%" x2="65.273%" y2="100%" id="aD"><stop stop-color="#B1FFBE" offset="0%"/><stop stop-color="#5CDB8E" offset="44.421%"/><stop stop-color="#149654" offset="100%"/></linearGradient><linearGradient x1="22.933%" y1="81.75%" x2="73.709%" y2="55.17%" id="aJ"><stop stop-color="#ACC1E3" offset="0%"/><stop stop-color="#D6E3FA" offset="100%"/></linearGradient><linearGradient x1="7.894%" y1="31.03%" x2="63.995%" y2="50%" id="aK"><stop stop-color="#ACC1E3" offset="0%"/><stop stop-color="#D6E3FA" offset="100%"/></linearGradient><linearGradient x1="64.174%" y1="13.875%" x2="40.821%" y2="59.153%" id="aL"><stop stop-color="#FF9D61" offset="0%"/><stop stop-color="#FFD873" offset="100%"/></linearGradient><path d="M25.097 23.325c.795 2.761.436 4.754-1.079 5.978-2.272 1.837-4.553 4.96-6.803 5.218-2.25.257-4.685 1.498-5.079 4.674-.19 1.534-7.996 9.465-10.784 20.377-.706 2.763.152 7.015 2.576 12.754l6.449-3.572L19.56 53.78c10.2-3.566 15.95-5.775 17.25-6.627 1.95-1.278 8.268-6.747 7.05-8.798-1.218-2.05 2.745-15.08 5.098-17.612 2.353-2.532 4.281-8.704 4.328-10.982.047-2.279.863-9.1-5.011-8.883-3.916.145-11.643 7.627-23.179 22.446Z" id="q"/><path d="M66.054 28.428c-10.29-2.583-15.076-.27-18.803-8.319C45.051 15.355 49.336.77 56.553.44c1.776 8.153 10.355 8.854 15.327 9.531 26.692 3.637 29.485 28.2 21.494 42.667-2.573 4.658-4.953 8.005-7.076 10.514-1.348 1.593-3.11 3.512-3.705 4.423-.199.304-1.92 4.14-2.218 4.065-.9-.225-.539-.27-.097-4.242.441-3.97.688-5.039 1.488-8.27.237-.954 4.713-8.285 1.275-10.939-2.291-1.77-5.387-.689-9.287 3.242l-2.368-.898c1.564-3.501 2.553-6.086 2.967-7.754.62-2.503 1.992-11.769-8.299-14.351Z" id="v"/><path d="M79.543 1.029c10.815 2.479 18.082 6.61 21.8 12.396 5.577 8.677 8.372 31.727 8.372 39.203 0 7.477.89 25.817 0 30.821-.89 5.004-4.973 8.721-13.425 8.721-5.634 0-37.57-10.547-95.806-31.642 7.658-3.812 11.61-6.445 11.853-7.9.366-2.181 18.138-41.967 23.759-46.02C41.716 2.555 53.385.637 58.062.637c-.683 1.91-2.205 3.452-.054 5.97 2.15 2.52 6.372 2.96 10.553 1.211 2.787-1.165 6.448-3.428 10.982-6.789Z" id="x"/><path d="M26.252 112.913c-2.374-1.35-10.32 1.872-10.32 8.389C11.712 106.806 0 87.185 0 65.741c5.369-18.694 19.375-48.166 22.503-52.792C24.588 9.865 34.92 5.55 53.499 0c4.156 4.584 9.08 6.875 14.775 6.875 8.54 0 8.99-5.286 11.271-5.561 2.282-.276 15.208 5.561 21.584 11.772 6.376 6.211 13.202 30.638 29.973 49.6s22.786 32.192 31.107 39.316c-3.052 2.759-7.188 4.366-7.188 10.91-3.011-2.228-19.816-13.891-34.058-27.468-14.242-13.576-20.559-24.867-22.708-26.396-2.472-1.757 3.115 52.624 2.874 62.254-.241 9.63-33.05 10.18-43.31 10.18-10.26 0-26.127-3.585-30.2-7.119-.671-.582 1.088-77.042 0-73.834-2.76 8.14-9.172 12.157-9.172 17.518 0 12.457 7.82 45.743 7.805 44.866Z" id="I"/><path d="M20.022 10.795c-1.005 4.712-.138 8.12-.138 13.484 0 7.167-14.585 4.25-15.083-1.183-.498-5.434.09-12.719-1.964-17.655-2.054-4.936 18.19.642 17.185 5.354Z" id="U"/><path id="Y" d="M.768 47.132 6.275 2.299 81.37.789l-6.566 43.77z"/><path d="m90.83 95.916 49.599-19.82a1.973 1.973 0 0 0-.064-3.686L77.209 49.695 14.907 65.147 90.83 95.916Z" id="aj"/><path d="m3.864.781 69.983 22.726a5.905 5.905 0 0 1 3.98 4.553l12.521 68.104-75.834-30.872L.838 3.544A2.365 2.365 0 0 1 2.628.723C3.038.63 3.465.65 3.864.78Z" id="am"/><path d="M54.184 1.328c1.773 3.118 2.766 6.61 2.766 10.3 0 13.169-12.66 23.845-28.279 23.845C13.053 35.473.393 24.797.393 11.627c0-3.903 1.112-7.587 3.083-10.84 12.528 1.991 37.462 1.863 50.708.541Z" id="aq"/><path d="M26.511.394c14.208 0 25.726 2.735 25.726 6.11 0 3.373-11.518 6.109-25.726 6.109-14.208 0-25.726-2.736-25.726-6.11S12.303.394 26.511.394Z" id="as"/><path d="M25.136 72.522c-1.404-9.756-5.27-23.845-16.888-39.02C1.404 24.563 1.38 2.795.393.394c5.37 1.853 15.018 6.63 24.743 20.101 10.195 14.121 3.728 42.92 0 52.027Z" id="au"/><path d="M43.64 47.458C39.3 40.491 31.63 31.05 17.68 23.395 9.464 18.885 2.155 2.292.597.795 5.316.397 14.277.788 26.21 7.782c12.51 7.331 17.222 31.473 17.428 39.676Z" id="ay"/><path d="M1.59 52.748c3.422-7.498 9.84-17.892 22.744-27.32C31.935 19.875 37.07 2.407 38.428.714 33.677.929 24.8 2.478 13.818 10.986 2.306 19.906.735 44.554 1.589 52.748Z" id="aC"/><path d="M26.156.405c13.91 0 25.188 11.235 25.188 25.095S40.067 50.595 26.156 50.595C12.246 50.595.97 39.36.97 25.5S12.245.405 26.156.405Z" id="aG"/><filter x="-17.5%" y="-21.1%" width="135.1%" height="142.1%" filterUnits="objectBoundingBox" id="z"><feGaussianBlur stdDeviation="13.5" in="SourceAlpha" result="shadowBlurInner1"/><feOffset dx="-12" dy="1" in="shadowBlurInner1" result="shadowOffsetInner1"/><feComposite in="shadowOffsetInner1" in2="SourceAlpha" operator="arithmetic" k2="-1" k3="1" result="shadowInnerInner1"/><feColorMatrix values="0 0 0 0 0.0901960784 0 0 0 0 0.254901961 0 0 0 0 0.57254902 0 0 0 0.204200634 0" in="shadowInnerInner1"/></filter><filter x="-9.6%" y="-11.8%" width="119.1%" height="123.6%" filterUnits="objectBoundingBox" id="K"><feGaussianBlur stdDeviation="11.5" in="SourceAlpha" result="shadowBlurInner1"/><feOffset dx="8" dy="3" in="shadowBlurInner1" result="shadowOffsetInner1"/><feComposite in="shadowOffsetInner1" in2="SourceAlpha" operator="arithmetic" k2="-1" k3="1" result="shadowInnerInner1"/><feColorMatrix values="0 0 0 0 0.729411765 0 0 0 0 0.8 0 0 0 0 0.933333333 0 0 0 1 0" in="shadowInnerInner1"/></filter><filter x="-16%" y="-43.3%" width="131.9%" height="186.7%" filterUnits="objectBoundingBox" id="ak"><feGaussianBlur stdDeviation="12" in="SourceAlpha" result="shadowBlurInner1"/><feOffset dx="-17" dy="-7" in="shadowBlurInner1" result="shadowOffsetInner1"/><feComposite in="shadowOffsetInner1" in2="SourceAlpha" operator="arithmetic" k2="-1" k3="1" result="shadowInnerInner1"/><feColorMatrix values="0 0 0 0 0.239215686 0 0 0 0 0.509803922 0 0 0 0 0.941176471 0 0 0 0.775418931 0" in="shadowInnerInner1"/></filter><filter x="-9.9%" y="-9.3%" width="119.8%" height="118.6%" filterUnits="objectBoundingBox" id="ao"><feGaussianBlur stdDeviation="6" in="SourceAlpha" result="shadowBlurInner1"/><feOffset dx="-6" dy="2" in="shadowBlurInner1" result="shadowOffsetInner1"/><feComposite in="shadowOffsetInner1" in2="SourceAlpha" operator="arithmetic" k2="-1" k3="1" result="shadowInnerInner1"/><feColorMatrix values="0 0 0 0 1 0 0 0 0 1 0 0 0 0 1 0 0 0 0.5 0" in="shadowInnerInner1"/></filter><filter x="-44.8%" y="-21.8%" width="189.5%" height="143.6%" filterUnits="objectBoundingBox" id="aw"><feGaussianBlur stdDeviation="11" in="SourceAlpha" result="shadowBlurInner1"/><feOffset dy="-10" in="shadowBlurInner1" result="shadowOffsetInner1"/><feComposite in="shadowOffsetInner1" in2="SourceAlpha" operator="arithmetic" k2="-1" k3="1" result="shadowInnerInner1"/><feColorMatrix values="0 0 0 0 0.221483195 0 0 0 0 0.778539541 0 0 0 0 0.610041349 0 0 0 1 0" in="shadowInnerInner1"/></filter><filter x="-36.1%" y="-33.3%" width="172.1%" height="166.5%" filterUnits="objectBoundingBox" id="aA"><feGaussianBlur stdDeviation="11" in="SourceAlpha" result="shadowBlurInner1"/><feOffset dy="-10" in="shadowBlurInner1" result="shadowOffsetInner1"/><feComposite in="shadowOffsetInner1" in2="SourceAlpha" operator="arithmetic" k2="-1" k3="1" result="shadowInnerInner1"/><feColorMatrix values="0 0 0 0 0.221483195 0 0 0 0 0.778539541 0 0 0 0 0.610041349 0 0 0 1 0" in="shadowInnerInner1"/></filter><filter x="-41.1%" y="-30.1%" width="182.3%" height="160.1%" filterUnits="objectBoundingBox" id="aE"><feGaussianBlur stdDeviation="11" in="SourceAlpha" result="shadowBlurInner1"/><feOffset dy="-10" in="shadowBlurInner1" result="shadowOffsetInner1"/><feComposite in="shadowOffsetInner1" in2="SourceAlpha" operator="arithmetic" k2="-1" k3="1" result="shadowInnerInner1"/><feColorMatrix values="0 0 0 0 0.221483195 0 0 0 0 0.778539541 0 0 0 0 0.610041349 0 0 0 1 0" in="shadowInnerInner1"/></filter><radialGradient cx="100%" cy="50%" fx="100%" fy="50%" r="72.489%" gradientTransform="scale(-1 -.6848) rotate(6.773 10.394 -17.013)" id="R"><stop stop-color="#2D6DC0" offset="0%"/><stop stop-color="#143B8C" offset="100%"/></radialGradient><radialGradient cx="78.101%" cy="23.711%" fx="78.101%" fy="23.711%" r="85.784%" gradientTransform="matrix(-.4485 .88932 -1.62384 -.85137 1.516 -.256)" id="aH"><stop stop-color="#CBDAF1" offset="0%"/><stop stop-color="#7089B9" offset="100%"/></radialGradient></defs><g fill="none" fill-rule="evenodd"><path fill="url(#a)" d="M0 0h910v580H0z"/><path d="m425.836 54.595 1.081 1.202c72.503 4.707 131.168 39.555 146.993 94.65 22.56 78.537-50.478 168.475-163.132 200.882-80.308 23.102-159.07 10.731-205.852-26.73-97.564 8.173-181.317-29.72-200.788-97.505-23.731-82.618 57.02-178.358 180.363-213.84 98.675-28.386 194.715-9.607 241.335 41.34Z" fill="url(#b)" opacity=".483" transform="translate(0 89)"/><g opacity=".3"><path d="M50.815 143.118c-3.72 3.284-17.866-3.283-23.475-13.477-5.608-10.194 4.796-13.822-9.356-30.126C3.833 83.212-5.248 76.968 3.34 50.095 11.928 23.22.064 8.284 15.74 1.274 31.417-5.738 40.445 17.532 38.647 38c-1.799 20.468 1.88 24.71 17.213 22.589 15.333-2.121 2.406 27.927 2.406 34.486 0 6.56 9.298 18.742 7.369 27.907-1.93 9.166-11.1 16.853-14.82 20.136Z" fill="url(#c)" transform="scale(-1 1) rotate(31 -566.461 -262.68)"/><path d="M41.86 114.545c0-5.034 1.274-20.72 8.208-30.272" stroke="url(#d)" stroke-width="6" stroke-linecap="round" transform="scale(-1 1) rotate(31 -566.461 -262.68)"/><path d="M9.921 85.17c0-5.034 14.165-8.568 21.098-18.12" stroke="url(#e)" stroke-width="6" stroke-linecap="round" transform="rotate(-31 586.932 -188.866)"/><path d="M59.17 166.698c0-2.142-3.697-11.797-7.23-22.984C40.88 108.684 23.05 65.547 23.05 35.656" stroke="url(#f)" stroke-width="6" stroke-linecap="round" transform="scale(-1 1) rotate(31 -566.461 -262.68)"/></g><g opacity=".3"><path d="M18.028 121.453c0-15.847 13.277-64.891 31.198-91.727" stroke="url(#g)" stroke-width="6" stroke-linecap="round" transform="rotate(-1 16135.428 -17315.908)"/><path d="M33.715 39.128c3.065-4.304 4.595-9.113 4.59-14.425-.008-7.97-2.075-14.432-4.618-14.434-2.542-.003-4.597 6.456-4.59 14.425.006 5.313 1.545 10.124 4.618 14.434Z" fill="url(#h)" transform="rotate(-31 688.135 -386.17)"/><path d="M59.96 53.866c3.065-4.314 4.597-9.132 4.598-14.453 0-7.983-2.057-14.453-4.595-14.453s-4.596 6.471-4.597 14.453c0 5.322 1.531 10.14 4.595 14.453Z" fill="url(#i)" transform="rotate(87 66.203 339.25)"/><path d="M51.386 74.785c3.064-4.313 4.595-9.131 4.595-14.453 0-7.982-2.058-14.453-4.596-14.453-2.539 0-4.596 6.47-4.596 14.453 0 5.322 1.533 10.14 4.597 14.453Z" fill="url(#j)" transform="rotate(90 65.21 352.215)"/><path d="M44.397 95.072c3.064-4.314 4.595-9.132 4.595-14.454 0-7.982-2.058-14.453-4.596-14.453-2.539 0-4.596 6.47-4.596 14.453 0 5.322 1.533 10.14 4.597 14.454Z" fill="url(#j)" transform="rotate(90 58.338 372.738)"/><path d="M58.601 29.04c3.073-4.31 4.612-9.122 4.618-14.435C63.227 6.635 61.172.176 58.63.18c-2.542.002-4.609 6.465-4.617 14.435-.005 5.314 1.524 10.122 4.588 14.427Z" fill="url(#k)" transform="rotate(32 -273.575 685.25)"/><path d="M22.29 61.264c3.063-4.306 4.591-9.116 4.585-14.43-.008-7.973-2.075-14.438-4.617-14.44-2.541-.003-4.594 6.457-4.586 14.43.006 5.314 1.545 10.128 4.618 14.44Z" fill="url(#l)" transform="rotate(-42 537.86 -211.783)"/><path d="M13.713 83.454c3.062-4.306 4.59-9.117 4.585-14.434-.009-7.974-2.076-14.44-4.617-14.443-2.54-.003-4.593 6.46-4.584 14.433.006 5.317 1.544 10.131 4.616 14.444Z" fill="url(#m)" transform="rotate(-48 479.632 -135.118)"/></g><g opacity=".782" stroke-linecap="round" stroke-linejoin="round" stroke-width="8"><path stroke="url(#n)" d="M0 29.834 39.928 0" transform="translate(200 187)"/><path stroke="url(#o)" d="m.393 44.814 31.493-23.531" transform="translate(200 187)"/><path stroke="url(#n)" d="M138.072 64.02 178 34.186" transform="translate(200 187)"/><path stroke="url(#o)" d="m138.466 79 31.493-23.532" transform="translate(200 187)"/></g><path d="M146.125 64.63 58.987 48.262C33.7 85.554 21.733 117.004 23.088 142.611c15.977 6.664 46.735 17.211 92.273 31.64l36.641-99.172c1.501-4.062-.554-8.58-4.59-10.09a7.739 7.739 0 0 0-1.287-.36Z" fill="url(#p)" transform="translate(340 233)"/><g transform="translate(373.919 279.3)"><mask id="s" fill="#fff"><use xlink:href="#q"/></mask><use fill="url(#r)" xlink:href="#q"/><path d="M47.07 35.046C39.64 21.778 34.192 13.479 30.722 10.15 27.252 6.82 35.53 3.477 55.556.12L47.07 38.804v-3.757Z" fill="#EEB89E" style="mix-blend-mode:multiply" opacity=".5" mask="url(#s)"/></g><path d="M52.928 22.814c-2.69 1.822-.395 9.156-3.306 13.343-1.591 2.288-4.939 3.561-6.484 4.472-4.373 2.577.12 4.417 1.024 5.95.904 1.535.184 5-.493 7.732-.677 2.73-3.077 8.885-.504 10.26 2.574 1.376 18.377 7.38 22.947 5.546 4.57-1.834 6.204-11.02 7.33-11.618 1.126-.598 1.918.033 2.957.294 2.707.68 5.15-.848 6.452-3.02 1.473-2.461 3.568-1.338 2.435-4.7-1.747-5.188-11.874-25.62-15.898-27.089-4.024-1.469-12.301-3.989-16.46-1.17Z" fill="url(#t)" transform="translate(340 233)"/><g transform="translate(340 233)"><use fill="url(#u)" xlink:href="#v"/><use fill="url(#w)" xlink:href="#v"/></g><g transform="translate(340 308.336)"><mask id="B" fill="#fff"><use xlink:href="#x"/></mask><use fill="#3D82F0" xlink:href="#x"/><use fill="url(#y)" xlink:href="#x"/><use fill="#000" filter="url(#z)" xlink:href="#x"/><path d="M52.365 2.168c-8.956 9.227 8.712 14.143 15.927 11.685 4.81-1.639 9.913-5.534 15.31-11.685-13.6-10.186-22.206-12.733-25.818-7.64-5.419 7.64 3.538-1.587-5.419 7.64Z" fill="url(#A)" style="mix-blend-mode:multiply" opacity=".585" mask="url(#B)"/><path d="M39.601 85.648c6.378 0 47.845-6.91 47.845-12.52 0-3.74-1.066-18.783-3.197-45.13" fill="url(#C)" style="mix-blend-mode:multiply" opacity=".547" mask="url(#B)"/><path d="M-18.492 61.32c2.889 0 16.244 17.028 28.446 11.296 14.74-6.924 23.323-32.56 23.323-35.63 0-2.347 3.87-10.673 2.396-19.745-.582-3.585-3.25-9.273-8.004-17.062" fill="url(#D)" style="mix-blend-mode:multiply" opacity=".547" mask="url(#B)"/></g><path d="M53.819 53.19c1.57 12.077 1.871 19.105.903 21.083-1.453 2.968 1.36 16.928 10.319 17.738 8.959.81 13.655-3.043 14.007-12.462.352-9.419.913-13.05 2.36-17.218 1.447-4.168-25.516-21.436-26.686-18.244-.78 2.128-1.082 5.163-.903 9.103Z" fill="#EEB89E" style="mix-blend-mode:multiply" opacity=".72" transform="translate(220 131)"/><path d="M90.64 25.445c0 2.685.353 11.068.086 13.192-.267 2.125-.48 5.29-.24 9.38.24 4.09-1.865 14.148-4.214 17.792-1.402 2.175-6.962 6.37-12.415 5.78-6.465-.698-13.534-6.998-14.29-10.148-1.394-5.807-.239-10.932-4.256-14.018-4.017-3.086-6.944-5.952-6.583-10.716.361-4.764 4.486-16.105 6.583-16.582 2.097-.476 35.329 2.635 35.329 5.32Z" fill="url(#E)" transform="translate(220 131)"/><path d="M56.13 22.016c1.906 2.903 18.595 16.897 35.322 7.812 16.728-9.085-5.524-25.578-15.614-27.46-10.09-1.88-18.779-.835-24.882 7.711-6.103 8.547-9.164 23.194 2.775 43.065.526-3.154.789-5.255.789-6.304-4.752-4.387-5.94-8.476-3.564-12.265 3.564-5.684 4.742 5.46 5.173 7.25 1.419 0 2.312-.249 2.679-.748-.978-2.813-1.334-5.414-1.07-7.804.397-3.584 1.57-4.382-1.609-11.257Z" fill="url(#F)" transform="translate(220 131)"/><path d="M244.283 362.557c0-4.38-5.026-33.064 5.335-41.682 10.36-8.618 23.176 3.954 70.377 5.859.777 19.265.777 32.828 0 40.688-.777 7.86-29.288 19.003-75.712-4.865Z" fill="#3D82F0"/><path d="M16.283 194.41c1.113 4.975 4.795 10.29 6.036 11.437 1.24 1.148 5.754 2.57 6.607 2.294.853-.276 3.1-2.17 3.2-4.387.102-2.217-2.052-3.466-2.067-6.742-.014-3.276-5.413-8.028-5.413-10.926 0-2.898-9.476 3.348-8.363 8.324Z" fill="url(#G)" transform="translate(220 131)"/><path d="M155.031 187.584c3.348 4.482 5.528 5.266 6.783 6.602 1.255 1.337 4.127 6.056 5.193 5.27 1.067-.787 2.171-2.336.512-5.27-1.66-2.933-4.173-6.026-3.3-7.579.872-1.552 5.13-6.141 8.685-7.206 3.554-1.066 4.735-.378 5.089-.95.354-.572-4.25-1.403-6.148-1.618-1.898-.215-4.587-.461-8.464 0-2.584.307-4.385-.777-5.401-3.253-4.198 6.348-5.18 11.016-2.949 14.004Z" fill="url(#H)" transform="translate(220 131)"/><g transform="translate(220 205.795)"><mask id="M" fill="#fff"><use xlink:href="#I"/></mask><use fill="url(#J)" xlink:href="#I"/><use fill="#000" filter="url(#K)" xlink:href="#I"/><path d="m24.18 57.228 14.698-19.715c3.63 42.622-2.657 71.315-18.86 86.079-4.283-25.617-1.899-39.006 0-50.2.83-4.9 2.218-10.288 4.161-16.164Z" fill="url(#L)" style="mix-blend-mode:multiply" mask="url(#M)"/><path d="M29.08 128.045c5.487-16.224 30.145-69.658 40.699-77.278 10.553-7.619 11.348-17.453 10.95-30.505C80.333 7.21 55.684-18.796 42.798-8.959 29.91.877-4.59 19.025-8.362 49.456c-3.772 30.43 12.294 77.108 19.553 72.493 7.258-4.614 12.402 22.32 17.889 6.096Z" fill="url(#N)" style="mix-blend-mode:multiply" opacity=".162" mask="url(#M)"/></g><path d="M55.062 64.946c0 2.966 4.47 11.258 13.102 10.943 8.632-.316 10.369-.556 11.35-4.979 0 6.553.336 8.488-1.256 12.81-1.592 4.32-11.514 6.69-17.078 3.1-5.565-3.59-8.465-5.738-7.651-12.291.814-6.554 1.533-12.55 1.533-9.583Z" fill="url(#O)" transform="translate(220 131)"/><path d="m44.226 119.832 79.702-19.325c14.74 39.883 21.429 72.686 20.063 98.41-16.095 6.694-40.237 15.374-72.426 26.039l-32.912-94.87c-1.427-4.111.738-8.605 4.836-10.036a7.83 7.83 0 0 1 .737-.218Z" fill="url(#P)" transform="translate(32 165)"/><path d="M166.95 270.902c-1.706 5.424 3.837 20.736 12.644 28.22 8.806 7.482-19.519 6.21-19.536-2.133-.016-8.343 8.599-31.51 6.892-26.087Z" fill="#316EEA"/><path d="M138.805 122.897c6.66 2.756 11.461 5.7 14.404 8.83 4.415 4.696 25.882 41.22 28.414 43.383 2.53 2.162 19.95 3.8 22.574 4.663-1.342 1.948-3.952 7.963-2.61 13.254-4.14 2.091-13.234.224-31.835-1.867-13.837-11.616-21.022-29.935-23.98-38.681-2.96-8.746-5.281-18.606-6.967-29.582Z" fill="url(#Q)" transform="translate(32 165)"/><path d="M147.943 129.16c5.377 9.23 13.671 27.762 16.027 35.763 2.525 8.58-7.293 31.175-7.18 36.484.096 4.428-4.444 2.882-44.774 6.955-1.247-7.806-1.247-17.567 0-29.282 1.87-17.573-5.75-41.215-3.637-45.185 2.112-3.97 7.25-12.412 9.506-12.412 2.256 0 24.682-1.552 30.058 7.678Z" fill="url(#R)" transform="translate(32 165)"/><path d="m7.821 220.927 183.495-34.018c32.579-6.04 84.609-2.85 116.198 7.12l146.6 46.269c46.881 14.796 47.994 41.85 2.466 60.432l-48.09 19.63c-45.52 18.578-122.159 30.743-171.197 27.168L88.777 336.701c-49.03-3.574-85.933-46.222-82.423-95.263l1.467-20.51Z" fill="url(#S)" transform="translate(32 165)"/><path fill="url(#T)" opacity=".197" style="mix-blend-mode:multiply" d="m156.242 234.747 96.147-15.595 73.154 32.164-105.906 28.194" transform="translate(32 165)"/><g transform="translate(144.802 262.353)"><mask id="W" fill="#fff"><use xlink:href="#U"/></mask><use fill="url(#V)" xlink:href="#U"/><path d="M-.859 31.763c14.688-12.35 23.726-18.525 27.116-18.525 3.39 0-5.65-2.07-27.116-6.21v24.735Z" fill="#EEB89E" style="mix-blend-mode:multiply" opacity=".5" mask="url(#W)"/></g><path d="M137.302 70.233c1.296 4.108 1.151 8.663 3.667 12.587 2.515 3.923 5.829 7.349 6.709 9.092.88 1.743-3.53 3.292-3.53 4.85 0 1.56 2.939 12.405 1.366 13.442-.896 2.422-17.403 5.78-21.571 3.374-3.675 0-9.338-3.235-12.813-11.185-3.475-7.95-3.636-27.253 0-32.16 3.635-4.907 24.876-4.108 26.172 0Z" fill="url(#X)" transform="translate(32 165)"/><g transform="translate(194.29 345.124)"><mask id="ab" fill="#fff"><use xlink:href="#Y"/></mask><use fill="url(#Z)" xlink:href="#Y"/><path fill="url(#aa)" opacity=".458" style="mix-blend-mode:multiply" mask="url(#ab)" d="M78.78 35.051 69.006-.389h15.748z"/><path d="M9.114 26.45c0 2.829 6.785 6.933 14.763 10.526 4.626 2.084 3.988 6.92 6.001 6.92 3.656 0-7.497 5.295-33.46 15.886-1.408-14.321-1.408-23.35 0-27.088 2.302-6.11 12.696-7.796 12.696-6.243Z" fill="url(#ac)" opacity=".528" style="mix-blend-mode:multiply" mask="url(#ab)"/></g><path d="M156.943 209.067c2.28 0 5.04-1.21 9.073-2.135 4.033-.924 6.576-2.394 7.814-1.027.484.534-.323 1.835-.913 2.19-.59.354-.903.876-3.719 1.92-2.613.97-4.126 1.424-3.654 2.328.472.903 4.754 1.69 6.125 2.054 1.75.465 4.382 1.372 6.892 1.795 2.805.472 5.904.525 6.26.731.675.391 1.662 1.862 0 2.332-.392.11-3.231.168-6.683 0-3.687-.18-7.068-.889-6.469 0 .142.21 3.542.906 7.276.906 2.214 0 6.692.277 6.976.277 1.024 0 1.538 1.405.609 2.096-.217.162-4.539.653-7.97.78-3.948.145-7.442-.214-7.484 0-.03.155 4.13.68 7.87.501 3.026-.144 4.69-.382 5.255 0 .566.382.423 1.404 0 1.863-.175.191-2.91 1.064-5.64 1.245-3.834.255-8-.19-8.037 0-.098.506 6.987.826 8.037.826 1.494 0 1.306 1.94-.423 2.35-2.17.515-6.658.474-8.7.474-2.043 0-5.112-.474-8.184-1.618-3.071-1.145-7.172-2.677-9.771-3.277-2.81-.648-.792-9.561 1.153-14.238s2.026-2.373 4.307-2.373Z" fill="url(#ad)" transform="translate(32 165)"/><path d="M89.066 157.644c-5.81 14.908-1.217 26.222 1.333 39.138 2.55 12.915 3.71 15.71 7.774 18.337 4.065 2.627 14.03 6.286 52.334 10.725 0-3.07-.098-10.697 4.908-17.102-7.078 0-32.238-6.964-40.889-9.146-7.772-5.978 0-15.561 0-33.542 0-17.98-19.651-23.317-25.46-8.41Z" fill="url(#ae)" transform="translate(32 165)"/><path d="M112.491 72.103c5.428 4.212 18.058 5.447 26.655 1.378 8.596-4.07 10.694-20.73 0-25.855-4.068-1.95-12.147-.688-11.026 5.19-9.357-3.632-19.532-.452-23.566 1.97-6.286 3.774-11.185 7.885-13.761 16.53-2.576 8.643 1.63 17.24-.44 21.641-2.07 4.402-8.168 8.224-4.908 21.751 3.26 13.527-4.573 11.363-6.34 19.614-1.765 8.251 3.86 12.188 0 17.686-3.858 5.498-11.256 28.709 2.6 41.14 13.856 12.431 39.676 21.488 45.544-5.272 5.867-26.76-21.656-32.603-13.58-45.984 8.078-13.382 2.727-25.789 4.418-29.615 2.08-4.707-.157-11.89-4.107-21.624-3.658-9.016 1.609-11.423-1.489-18.55Z" fill="url(#af)" transform="translate(32 165)"/><path d="m0 17.682 52.26-9.01c28.846 18.09 42.982 27.192 42.41 27.308-.816.165-58.523 10.292-62.421 11.341.365-.934-10.388-10.817-32.249-29.64Z" fill="url(#ag)" transform="translate(192.695 408.187)"/><path fill="url(#ah)" d="M31.028 3.688 85.642 0l30.024 26.325-68.041 4.71z" transform="translate(192.695 408.187)"/><g transform="translate(266.95 319.898)"><use fill="url(#ai)" xlink:href="#aj"/><use fill="#000" filter="url(#ak)" xlink:href="#aj"/></g><g transform="translate(266.95 319.898)"><use fill="url(#al)" xlink:href="#am"/><use fill-opacity=".23" fill="url(#an)" xlink:href="#am"/><use fill="#000" filter="url(#ao)" xlink:href="#am"/></g><path d="M305.92 370.873c3.607 1.765 7.41 1.762 8.979-1.466 1.568-3.228-1.262-6.882-4.869-8.648-3.606-1.765-7.017-1.762-8.586 1.467-1.569 3.228.869 6.882 4.476 8.647Z" fill="#D6E3FA"/><path d="M176.314 264.661c.385-.2.264.683.432 1.2.168.519.282.6.337.938-1.6.827-4.384.99-6.248-.117-.373-.222-.7-.403-.39-.709.31-.305.695-.114 1.11.01 1.453.43 3.762-.807 4.759-1.322Z" fill="#A7703F"/><path d="M23.958 30.349c13.015 0 23.566 2.294 23.566 5.124 0 2.83-10.551 5.124-23.566 5.124-13.015 0-23.565-2.294-23.565-5.124 0-2.83 10.55-5.124 23.565-5.124Z" fill="url(#ap)" opacity=".7" transform="translate(96.1 411.734)"/><use fill="url(#ar)" xlink:href="#aq" transform="translate(97.278 416.07)"/><use fill="url(#at)" xlink:href="#as" transform="translate(99.635 411.734)"/><g transform="translate(98.85 341.182)"><mask id="ax" fill="#fff"><use xlink:href="#au"/></mask><use fill="url(#av)" xlink:href="#au"/><use fill="#000" filter="url(#aw)" xlink:href="#au"/><path d="M24.744 72.522c1.072-23.716-1.87-38.684-11.122-52.815" stroke="#489C71" stroke-width="3" fill="none" opacity=".5" style="mix-blend-mode:multiply" mask="url(#ax)"/></g><g transform="translate(80.39 376.26)"><mask id="aB" fill="#fff"><use xlink:href="#ay"/></mask><use fill="url(#az)" xlink:href="#ay"/><use fill="#000" filter="url(#aA)" xlink:href="#ay"/><path d="M43.34 47.59C36.213 29.144 28.954 18.72 17.16 11.064" stroke="#489C71" stroke-width="3" fill="none" opacity=".5" style="mix-blend-mode:multiply" mask="url(#aB)"/></g><g transform="translate(125.557 371.925)"><mask id="aF" fill="#fff"><use xlink:href="#aC"/></mask><use fill="url(#aD)" xlink:href="#aC"/><use fill="#000" filter="url(#aE)" xlink:href="#aC"/><path d="M.594 52.732c4.713-19.291 10.596-30.609 21.352-39.76" stroke="#489C71" stroke-width="3" fill="none" opacity=".5" style="mix-blend-mode:multiply" mask="url(#aF)"/></g><g opacity=".6" transform="translate(413.844 89)"><mask id="aI" fill="#fff"><use xlink:href="#aG"/></mask><use fill="url(#aH)" xlink:href="#aG"/><path stroke="#FFF" stroke-width="4" mask="url(#aI)" d="M26.158 8.876v17.96l7.903 8.218"/></g><path d="M435.668 419.788c1.94 1.907 3.593 3.757 4.96 5.55 2.846 3.73 3.696 8.886 3.498 9.016-1.08.71-7.252-3.388-8.458-6.717-.723-1.995-.723-4.612 0-7.85Z" fill="#A1B8E3"/><path d="M1.632 37.717c14.529-9.782 22.145-21.97 22.85-36.564 3.814-.561 11.183.14 29.672 3.31 1.722.295 1.874 2.989.457 8.081 6.233 2.255 9.09 4.403 8.569 6.443C58.66 36.68 52.684 44.745 43.664 48.536 33.316 49.83 19.305 46.225 1.632 37.717Z" fill="url(#aJ)" transform="translate(381.332 415.17)"/><path d="M338.314 468.47a34.17 34.17 0 0 1-.012 4.008c-.17 2.518-1.432 4.888-1.536 4.869-.572-.105-1.397-3.97-.802-5.736.357-1.059 1.14-2.106 2.35-3.141Z" fill="#A1B8E3"/><path d="M-.364 7.498c9.686 1.3 17.425-.961 23.217-6.783 1.787 1.178 4.566 4.197 11.004 12.363.6.76-.353 1.94-2.857 3.538 1.723 3.247 2.093 5.2 1.109 5.857-8.535 5.703-14.043 6.852-19.197 5.093-4.76-3.29-9.186-9.98-13.276-20.068Z" fill="url(#aK)" transform="translate(304.77 455.024)"/><path d="M28.43.662C24.67 10.732 12.431 16.544.074 18.75c4.99 7.505 14.953 19.567 23.608 28.277.412.415 2.08 1.063 2.518 1.404 2.652 2.058 5.49.895 6.963.875 7.289-2.195 13.758-3.137 19.824-8.433 3.11-2.715 5.42-5.207 6.154-6.415-1.812-5.323-10.785-9.985-30.71-33.795Z" fill="url(#aL)" transform="translate(145.356 433)"/><path d="M177.077 476.282c.142 2.835-5.37 5.431-8.52 2.647 3.377 2.928 6.381 3.36 8.873 3.352 2.492-.007 14.13.019 28.008-14.835-12.279 12.096-21.587 15.205-28.36 8.836Z" fill="#FF9600"/></g></svg>